<?xml version="1.0" encoding="utf-8"?>
<!-- Generator: Adobe Illustrator 26.2.1, SVG Export Plug-In . SVG Version: 6.00 Build 0)  -->
<svg version="1.1" id="Layer_1" xmlns="http://www.w3.org/2000/svg" xmlns:xlink="http://www.w3.org/1999/xlink" x="0px" y="0px"
	 viewBox="0 0 144 38.9" style="enable-background:new 0 0 144 38.9;" xml:space="preserve">
<style type="text/css">
	.st0{opacity:0.7;fill:none;stroke:#FFFFFF;stroke-miterlimit:10;}
	.st1{fill:#FFFFFF;}
	.st2{fill:none;stroke:#FFFFFF;stroke-miterlimit:10;}
	.st3{fill:none;stroke:#FFFFFF;stroke-width:1.4;stroke-miterlimit:10;}
	.st4{fill:none;stroke:#FFFFFF;stroke-linecap:round;stroke-miterlimit:10;}
	.st5{fill:none;stroke:#FFFFFF;stroke-width:0.5;stroke-linecap:round;stroke-miterlimit:10;}
	.st6{font-family:'Poppins-Medium';}
	.st7{font-size:10px;}
</style>
<g>
	<path class="st0" d="M126.8,36.1h-115c-5.5,0-10-4.5-10-10V12.7c0-5.5,4.5-10,10-10h115c5.5,0,10,4.5,10,10v13.3
		C136.8,31.6,132.3,36.1,126.8,36.1z"/>
	<g>
		<g>
			<path class="st1" d="M32.8,7.5c2.4,0,4.3,1.9,4.3,4.3v14.9H17.9V11.8c0-2.4,1.9-4.3,4.3-4.3H32.8 M32.8,6.1H22.2
				c-3.1,0-5.7,2.5-5.7,5.7v14.9v1.4h1.4h19.2h1.4v-1.4V11.8C38.5,8.7,35.9,6.1,32.8,6.1L32.8,6.1z"/>
		</g>
		<path class="st2" d="M20.2,24.4V11.1c0-0.7,0.6-1.3,1.3-1.3h12c0.7,0,1.3,0.6,1.3,1.3v13.3H20.2z"/>
		<polyline class="st3" points="17.2,26.7 17.2,31.3 19.2,31.3 21.2,27.1 		"/>
		<polyline class="st3" points="37.8,26.7 37.8,31.3 35.8,31.3 33.7,27 		"/>
		<line class="st4" x1="24.6" y1="12.2" x2="30.4" y2="12.2"/>
		<line class="st4" x1="24.6" y1="14.5" x2="30.4" y2="14.5"/>
		<line class="st4" x1="24.6" y1="16.8" x2="30.4" y2="16.8"/>
		<circle class="st5" cx="23.6" cy="21.2" r="1.5"/>
		<text transform="matrix(1 0 0 1 47.9553 17.3369)"><tspan x="0" y="0" class="st1 st6 st7">Descargar </tspan><tspan x="0" y="12" class="st1 st6 st7">Catálogo 2022</tspan></text>
	</g>
</g>
</svg>
