<?xml version="1.0" encoding="utf-8"?>
<!-- Generator: Adobe Illustrator 26.2.1, SVG Export Plug-In . SVG Version: 6.00 Build 0)  -->
<svg version="1.1" id="Layer_1" xmlns="http://www.w3.org/2000/svg" xmlns:xlink="http://www.w3.org/1999/xlink" x="0px" y="0px"
	 viewBox="0 0 28.5 25.4" style="enable-background:new 0 0 28.5 25.4;" xml:space="preserve">
<style type="text/css">
	.st0{fill:#FFFFFF;}
</style>
<path class="st0" d="M19.5,1.1H4.9c-2,0-3.7,1.7-3.7,3.7v15.3l5.9-4h12.4c2,0,3.7-1.7,3.7-3.7V4.8C23.2,2.8,21.5,1.1,19.5,1.1z
	 M7.2,10.1c-0.8,0-1.4-0.6-1.4-1.4c0-0.8,0.6-1.4,1.4-1.4c0.8,0,1.4,0.6,1.4,1.4C8.6,9.4,8,10.1,7.2,10.1z M12.2,10.1
	c-0.8,0-1.4-0.6-1.4-1.4c0-0.8,0.6-1.4,1.4-1.4c0.8,0,1.4,0.6,1.4,1.4C13.6,9.4,13,10.1,12.2,10.1z M17.2,10.1
	c-0.8,0-1.4-0.6-1.4-1.4c0-0.8,0.6-1.4,1.4-1.4c0.8,0,1.4,0.6,1.4,1.4C18.6,9.4,18,10.1,17.2,10.1z"/>
<path class="st0" d="M24.2,5.2v7.2c0,2.6-2.1,4.7-4.7,4.7H7.4l-1.7,1.2c0.6,1.1,1.8,1.8,3.2,1.8h12.4l5.9,4V8.8
	C27.2,7,25.9,5.5,24.2,5.2z"/>
</svg>
