<?xml version="1.0" encoding="utf-8"?>
<!-- Generator: Adobe Illustrator 26.2.1, SVG Export Plug-In . SVG Version: 6.00 Build 0)  -->
<svg version="1.1" id="Layer_1" xmlns="http://www.w3.org/2000/svg" xmlns:xlink="http://www.w3.org/1999/xlink" x="0px" y="0px"
	 viewBox="0 0 46.3 41.6" style="enable-background:new 0 0 46.3 41.6;" xml:space="preserve">
<style type="text/css">
	.st0{fill:#FFFFFF;}
</style>
<g>
	<path class="st0" d="M31.2,24.9L12.2,6c-0.6-0.6-0.6-1.7,0-2.4l0.2-0.2c0.6-0.6,1.7-0.6,2.4,0l18.9,18.9c0.6,0.6,0.6,1.7,0,2.4
		l-0.2,0.2C32.9,25.6,31.8,25.6,31.2,24.9z"/>
	<path class="st0" d="M33.7,6L14.8,24.9c-0.6,0.6-1.7,0.6-2.4,0l-0.2-0.2c-0.6-0.6-0.6-1.7,0-2.4L31.2,3.5c0.6-0.6,1.7-0.6,2.4,0
		l0.2,0.2C34.4,4.3,34.4,5.4,33.7,6z"/>
</g>
<g>
	<path class="st0" d="M3.1,32.7c0.3-0.6,0.7-1,1.3-1.3C4.9,31.1,5.6,31,6.3,31c0.9,0,1.7,0.2,2.3,0.7c0.6,0.5,1,1.1,1.2,2H7.6
		C7.4,33.4,7.2,33.1,7,33c-0.2-0.1-0.5-0.2-0.8-0.2c-0.5,0-0.8,0.2-1.1,0.5c-0.3,0.3-0.4,0.8-0.4,1.3c0,0.6,0.1,1,0.4,1.3
		c0.3,0.3,0.6,0.5,1.1,0.5c0.3,0,0.6-0.1,0.8-0.2c0.2-0.1,0.4-0.3,0.5-0.6h2.2c-0.2,0.8-0.6,1.5-1.2,2c-0.6,0.5-1.4,0.7-2.3,0.7
		c-0.7,0-1.3-0.2-1.9-0.5c-0.5-0.3-1-0.7-1.3-1.3c-0.3-0.6-0.4-1.2-0.4-1.9C2.7,33.9,2.8,33.3,3.1,32.7z"/>
	<path class="st0" d="M12.7,32.6v1.2h2.3v1.5h-2.3v1.3h2.6v1.6h-4.6V31h4.6v1.6H12.7z"/>
	<path class="st0" d="M19.9,38.2l-1.4-2.7h-0.2v2.7h-2V31h3.1c0.6,0,1.1,0.1,1.5,0.3c0.4,0.2,0.7,0.5,0.9,0.8
		c0.2,0.3,0.3,0.7,0.3,1.2c0,0.5-0.1,0.9-0.4,1.3c-0.3,0.4-0.7,0.6-1.2,0.8l1.6,2.8H19.9z M18.2,34.2h1c0.3,0,0.5-0.1,0.6-0.2
		c0.1-0.1,0.2-0.3,0.2-0.6c0-0.2-0.1-0.4-0.2-0.5c-0.1-0.1-0.3-0.2-0.6-0.2h-1V34.2z"/>
	<path class="st0" d="M26.6,38.2l-1.4-2.7H25v2.7h-2V31h3.1c0.6,0,1.1,0.1,1.5,0.3c0.4,0.2,0.7,0.5,0.9,0.8c0.2,0.3,0.3,0.7,0.3,1.2
		c0,0.5-0.1,0.9-0.4,1.3c-0.3,0.4-0.7,0.6-1.2,0.8l1.6,2.8H26.6z M25,34.2h1c0.3,0,0.5-0.1,0.6-0.2c0.1-0.1,0.2-0.3,0.2-0.6
		c0-0.2-0.1-0.4-0.2-0.5c-0.1-0.1-0.3-0.2-0.6-0.2h-1V34.2z"/>
	<path class="st0" d="M34.3,37h-2.5l-0.4,1.2h-2.1l2.6-7.2h2.3l2.6,7.2h-2.1L34.3,37z M33.8,35.5L33,33.2l-0.8,2.3H33.8z"/>
	<path class="st0" d="M41,38.2l-1.4-2.7h-0.2v2.7h-2V31h3.1c0.6,0,1.1,0.1,1.5,0.3c0.4,0.2,0.7,0.5,0.9,0.8c0.2,0.3,0.3,0.7,0.3,1.2
		c0,0.5-0.1,0.9-0.4,1.3c-0.3,0.4-0.7,0.6-1.2,0.8l1.6,2.8H41z M39.4,34.2h1c0.3,0,0.5-0.1,0.6-0.2c0.1-0.1,0.2-0.3,0.2-0.6
		c0-0.2-0.1-0.4-0.2-0.5c-0.1-0.1-0.3-0.2-0.6-0.2h-1V34.2z"/>
</g>
</svg>
