<?xml version="1.0" encoding="utf-8"?>
<!-- Generator: Adobe Illustrator 26.2.1, SVG Export Plug-In . SVG Version: 6.00 Build 0)  -->
<svg version="1.1" id="Layer_2" xmlns="http://www.w3.org/2000/svg" xmlns:xlink="http://www.w3.org/1999/xlink" x="0px" y="0px"
	 viewBox="0 0 39.3 38.1" style="enable-background:new 0 0 39.3 38.1;" xml:space="preserve">
<style type="text/css">
	.st0{fill:none;stroke:#FFFFFF;stroke-width:1.5;stroke-miterlimit:10;}
	.st1{fill:none;stroke:#FFFFFF;stroke-width:3;stroke-linecap:round;stroke-miterlimit:10;}
	.st2{fill:none;stroke:#FFFFFF;stroke-width:0.75;stroke-miterlimit:10;}
</style>
<g>
	<path class="st0" d="M30.9,31.5H8.4c-2.6,0-4.7-2.1-4.7-4.7V8.3c0-2.6,2.1-4.7,4.7-4.7h22.6c2.6,0,4.7,2.1,4.7,4.7v18.6
		C35.7,29.4,33.6,31.5,30.9,31.5z"/>
	<g>
		<line class="st1" x1="4.4" y1="34.5" x2="11.9" y2="34.5"/>
		<line class="st1" x1="27.4" y1="34.5" x2="34.9" y2="34.5"/>
	</g>
	<g>
		<line class="st0" x1="3.7" y1="22" x2="35.7" y2="22"/>
		<line class="st0" x1="3.7" y1="13" x2="35.7" y2="13"/>
	</g>
	<g>
		<path class="st2" d="M21.9,18.7l-4.4,0c-0.6,0-1.1-0.5-1.1-1.1v0c0-0.6,0.5-1.1,1.1-1.1l4.4,0c0.6,0,1.1,0.5,1.1,1.1v0
			C23,18.2,22.5,18.7,21.9,18.7z"/>
		<path class="st2" d="M21.9,9.7l-4.4,0c-0.6,0-1.1-0.5-1.1-1.1v0c0-0.6,0.5-1.1,1.1-1.1l4.4,0c0.6,0,1.1,0.5,1.1,1.1v0
			C23,9.2,22.5,9.7,21.9,9.7z"/>
		<path class="st2" d="M21.9,27.7l-4.4,0c-0.6,0-1.1-0.5-1.1-1.1v0c0-0.6,0.5-1.1,1.1-1.1l4.4,0c0.6,0,1.1,0.5,1.1,1.1v0
			C23,27.2,22.5,27.7,21.9,27.7z"/>
	</g>
</g>
</svg>
