<?xml version="1.0" encoding="utf-8"?>
<!-- Generator: Adobe Illustrator 26.2.1, SVG Export Plug-In . SVG Version: 6.00 Build 0)  -->
<svg version="1.1" id="Layer_2" xmlns="http://www.w3.org/2000/svg" xmlns:xlink="http://www.w3.org/1999/xlink" x="0px" y="0px"
	 viewBox="0 0 37 35.1" style="enable-background:new 0 0 37 35.1;" xml:space="preserve">
<style type="text/css">
	.st0{fill:none;stroke:#FFFFFF;stroke-width:1.5;stroke-miterlimit:10;}
	.st1{fill:#FFFFFF;}
</style>
<g>
	<path class="st0" d="M6.6,24.6v-9.4c0-6.6,5.3-11.9,11.9-11.9h0c6.6,0,11.9,5.3,11.9,11.9v10.6c0,2.4-2,4.4-4.4,4.4h-4.9"/>
	<path class="st0" d="M31.4,24.4h-1v-8h1c1.7,0,3,1.4,3,3v1.9C34.4,23.1,33,24.4,31.4,24.4z"/>
	<path class="st0" d="M5.6,16.4h1v8h-1c-1.7,0-3-1.4-3-3v-1.9C2.6,17.8,4,16.4,5.6,16.4z"/>
	<path class="st0" d="M22.3,23h-5.5c-1.5,0-3,0.5-4.3,1.4L10.3,26V14.2c0-2.5,2-4.5,4.5-4.5h7.5c2.5,0,4.5,2,4.5,4.5v4.4
		C26.7,21,24.7,23,22.3,23z"/>
	<path class="st0" d="M20,31.7h-1.8c-0.8,0-1.5-0.7-1.5-1.5v0c0-0.8,0.7-1.5,1.5-1.5H20c0.8,0,1.5,0.7,1.5,1.5v0
		C21.4,31.1,20.8,31.7,20,31.7z"/>
	<circle class="st1" cx="18.5" cy="16.8" r="1"/>
	<circle class="st1" cx="14.5" cy="16.8" r="1"/>
	<circle class="st1" cx="22.5" cy="16.8" r="1"/>
</g>
</svg>
