<?xml version="1.0" encoding="utf-8"?>
<!-- Generator: Adobe Illustrator 26.2.1, SVG Export Plug-In . SVG Version: 6.00 Build 0)  -->
<svg version="1.1" id="Layer_1" xmlns="http://www.w3.org/2000/svg" xmlns:xlink="http://www.w3.org/1999/xlink" x="0px" y="0px"
	 viewBox="0 0 23.3 23.4" style="enable-background:new 0 0 23.3 23.4;" xml:space="preserve">
<style type="text/css">
	.st0{fill-rule:evenodd;clip-rule:evenodd;fill:#FFFFFF;}
</style>
<path class="st0" d="M11.7,0.7c-6.1,0-11,4.9-11,11s4.9,11,11,11s11-4.9,11-11S17.7,0.7,11.7,0.7z M14.6,7.5H13c-0.8,0-1,0.5-1,1.1
	v1.1h2.4l-0.3,2.1h-2.1v6.3H10v-6.3H8.7V9.6H10V8.3c0-1.7,0.5-3,2.4-3h2.2V7.5z"/>
<path class="st0" d="M46.1,7c6.1,0,11,4.9,11,11s-4.9,11-11,11s-11-4.9-11-11S40.1,7,46.1,7z M42.7,24.2v-8.6h-2.9v8.6H42.7z
	 M53,24.2v-4.9c0-2.6-1.4-3.9-3.3-3.9c-1.5,0-2.2,0.8-2.6,1.4v-1.2h-2.9c0,0.8,0,8.6,0,8.6h2.9v-4.8c0-0.3,0-0.5,0.1-0.7
	c0.2-0.5,0.7-1,1.5-1c1,0,1.4,0.8,1.4,1.9v4.6L53,24.2L53,24.2z M41.3,11.4c-1,0-1.6,0.6-1.6,1.5c0,0.8,0.6,1.5,1.6,1.5h0
	c1,0,1.6-0.7,1.6-1.5C42.9,12.1,42.3,11.4,41.3,11.4L41.3,11.4z"/>
</svg>
