<?xml version="1.0" encoding="utf-8"?>
<!-- Generator: Adobe Illustrator 26.2.1, SVG Export Plug-In . SVG Version: 6.00 Build 0)  -->
<svg version="1.1" id="Layer_1" xmlns="http://www.w3.org/2000/svg" xmlns:xlink="http://www.w3.org/1999/xlink" x="0px" y="0px"
	 viewBox="0 0 24.3 19.5" style="enable-background:new 0 0 24.3 19.5;" xml:space="preserve">
<style type="text/css">
	.st0{fill:#606060;}
</style>
<path class="st0" d="M23.6,3.8c0-0.6-0.4-1-1-1H12.1c-0.6,0-1,0.4-1,1s0.4,1,1,1h10.5C23.1,4.8,23.6,4.3,23.6,3.8z"/>
<path class="st0" d="M1.6,4.8h2.7c0.6,1.6,2.3,2.4,3.8,1.8s2.4-2.3,1.8-3.8C9.4,1.2,7.6,0.4,6.1,0.9c-0.9,0.3-1.5,1-1.8,1.8H1.6
	c-0.6,0-1,0.4-1,1S1,4.8,1.6,4.8z M7.1,2.8c0.6,0,1,0.4,1,1s-0.4,1-1,1s-1-0.4-1-1S6.5,2.8,7.1,2.8z"/>
<path class="st0" d="M22.6,8.8h-3.7c-0.6-1.6-2.3-2.4-3.8-1.8s-2.4,2.3-1.8,3.8s2.3,2.4,3.8,1.8c0.9-0.3,1.5-1,1.8-1.8h3.7
	c0.6,0,1-0.4,1-1C23.6,9.2,23.1,8.8,22.6,8.8z M16.1,10.8c-0.6,0-1-0.4-1-1c0-0.6,0.4-1,1-1c0.6,0,1,0.4,1,1
	C17.1,10.3,16.6,10.8,16.1,10.8z"/>
<path class="st0" d="M11.1,8.8H1.6c-0.6,0-1,0.4-1,1c0,0.6,0.4,1,1,1h9.5c0.6,0,1-0.4,1-1C12.1,9.2,11.6,8.8,11.1,8.8z"/>
<path class="st0" d="M22.6,14.8h-8.5c-0.6,0-1,0.4-1,1c0,0.6,0.4,1,1,1h8.5c0.6,0,1-0.4,1-1C23.6,15.2,23.1,14.8,22.6,14.8z"/>
<path class="st0" d="M9.1,12.8c-1.3,0-2.4,0.8-2.8,2H1.6c-0.6,0-1,0.4-1,1c0,0.6,0.4,1,1,1h4.7c0.6,1.6,2.3,2.4,3.8,1.8
	c1.6-0.6,2.4-2.3,1.8-3.8C11.5,13.6,10.4,12.8,9.1,12.8z M9.1,16.8c-0.6,0-1-0.4-1-1c0-0.6,0.4-1,1-1c0.6,0,1,0.4,1,1
	C10.1,16.3,9.6,16.8,9.1,16.8z"/>
</svg>
