<?xml version="1.0" encoding="utf-8"?>
<!-- Generator: Adobe Illustrator 26.3.1, SVG Export Plug-In . SVG Version: 6.00 Build 0)  -->
<svg version="1.1" id="Layer_2" xmlns="http://www.w3.org/2000/svg" xmlns:xlink="http://www.w3.org/1999/xlink" x="0px" y="0px"
	 viewBox="0 0 37.6 40.4" style="enable-background:new 0 0 37.6 40.4;" xml:space="preserve">
<style type="text/css">
	.st0{fill:none;stroke:#FFFFFF;stroke-width:0.75;stroke-linecap:round;stroke-miterlimit:10;}
	.st1{fill:none;stroke:#FFFFFF;stroke-miterlimit:10;}
	.st2{fill:none;stroke:#FFFFFF;stroke-width:1.5;stroke-linejoin:round;stroke-miterlimit:10;}
	.st3{fill:none;stroke:#FFFFFF;stroke-width:1.5;stroke-linecap:round;stroke-miterlimit:10;}
</style>
<g>
	<g>
		<line class="st0" x1="15.8" y1="14.6" x2="21.8" y2="14.6"/>
		<line class="st0" x1="15.8" y1="16" x2="21.8" y2="16"/>
		<line class="st0" x1="15.8" y1="13.2" x2="21.8" y2="13.2"/>
	</g>
	<path class="st1" d="M22.9,35.1v-2.8c0-2.2-1.8-4.1-4.1-4.1s-4.1,1.8-4.1,4.1v3.3"/>
	<path class="st2" d="M33.1,17L20.8,5.6c-1.1-1-2.9-1-4,0L4.5,17c-1.8,1.6-0.5,4.5,2,4.5h1.8v9.7c0,2.4,1.9,4.3,4.3,4.3H25
		c2.4,0,4.3-1.9,4.3-4.3v-9.7h1.8C33.6,21.5,34.8,18.7,33.1,17z"/>
	<line class="st3" x1="8.3" y1="21.5" x2="22.9" y2="21.5"/>
</g>
</svg>
