<?xml version="1.0" encoding="utf-8"?>
<!-- Generator: Adobe Illustrator 26.2.1, SVG Export Plug-In . SVG Version: 6.00 Build 0)  -->
<svg version="1.1" id="Layer_1" xmlns="http://www.w3.org/2000/svg" xmlns:xlink="http://www.w3.org/1999/xlink" x="0px" y="0px"
	 viewBox="0 0 61.9 63.1" style="enable-background:new 0 0 61.9 63.1;" xml:space="preserve">
<style type="text/css">
	.st0{fill:none;stroke:#FFFFFF;stroke-width:2;stroke-linecap:round;stroke-miterlimit:10;}
	.st1{fill:none;stroke:#FFFFFF;stroke-width:2;stroke-miterlimit:10;}
</style>
<path class="st0" d="M-431.1-162.7h-4.7c-3.7,0-7-2.4-8.1-6l-4.3-14.4h10.9L-431.1-162.7z"/>
<g>
	<path class="st1" d="M33.7,43.1c-2.1,0-3.9-1.7-3.9-3.9v0c0-2.6-2.1-4.7-4.7-4.7h-9.9c-2.1,0-3.9,1.7-3.9,3.9v7
		c0,2.1,1.7,3.9,3.9,3.9h33.2c2.1,0,3.9-1.7,3.9-3.9v-2.4H33.7z"/>
	<line class="st1" x1="19.9" y1="34.6" x2="19.9" y2="49.1"/>
	<line class="st0" x1="29.8" y1="38.4" x2="46.7" y2="38.4"/>
	<path class="st0" d="M52.6,44.7h2c0.7,0,1.3,0.6,1.3,1.3v0c0,0.7-0.6,1.3-1.3,1.3h-2.3"/>
	<path class="st0" d="M29,36.3l3.2-3.2c-0.8-0.5-1.6-1-2.3-1.7l0,0c-0.7-0.7-1.3-1.5-1.7-2.3l-3.5,3.5c-0.5,0.5-0.8,1.3-0.8,2"/>
	<path class="st0" d="M29.9,31.4L29.9,31.4c-4-4-4-10.4,0-14.4L40.8,6.1c1.5-1.5,4-1.5,5.5,0l8.9,8.9c1.5,1.5,1.5,4,0,5.5L44.3,31.4
		C40.3,35.3,33.9,35.3,29.9,31.4z"/>
	<line class="st0" x1="40.2" y1="6.7" x2="54.6" y2="21.1"/>
	<line class="st0" x1="42" y1="38.4" x2="42" y2="43.1"/>
	<path class="st0" d="M8.1,40.3H6.8c-0.7,0-1.2,0.6-1.2,1.2c0,0.7,0.6,1.2,1.2,1.2h1.3V40.3z"/>
	<path class="st0" d="M9.8,44.7L9.8,44.7c-0.9,0-1.7-0.8-1.7-1.7v-3c0-0.9,0.8-1.7,1.7-1.7h0c0.9,0,1.7,0.8,1.7,1.7v3
		C11.5,44,10.7,44.7,9.8,44.7z"/>
	<path class="st0" d="M30.6,49.4v3.5c0,1.4-0.3,2.8-1,4.1l-0.2,0.4c-0.2,0.5,0.2,1,0.7,0.8l0,0c2.6-1.2,4.3-3.7,4.3-6.6v-1.7"/>
</g>
</svg>
