<?xml version="1.0" encoding="utf-8"?>
<!-- Generator: Adobe Illustrator 26.3.1, SVG Export Plug-In . SVG Version: 6.00 Build 0)  -->
<svg version="1.1" id="Layer_2" xmlns="http://www.w3.org/2000/svg" xmlns:xlink="http://www.w3.org/1999/xlink" x="0px" y="0px"
	 viewBox="0 0 67.6 78.8" style="enable-background:new 0 0 67.6 78.8;" xml:space="preserve">
<style type="text/css">
	.st0{fill:none;stroke:#FFFFFF;stroke-width:2;stroke-linecap:round;stroke-miterlimit:10;}
	.st1{fill:none;stroke:#FFFFFF;stroke-width:2;stroke-miterlimit:10;}
</style>
<path class="st0" d="M34.2,57.7H8.8c-2.7,0-4.9-2.2-4.9-4.9V32.9c0-2.7,2.2-4.9,4.9-4.9h34.5c2.7,0,4.9,2.2,4.9,4.9v2"/>
<path class="st1" d="M17.2,27.9v-7.5c0-4.9,4-8.8,8.8-8.8s8.8,4,8.8,8.8v7.5h7v-7.5c0-8.7-7.1-15.8-15.8-15.8h0
	c-8.7,0-15.8,7.1-15.8,15.8v7.5H17.2z"/>
<path class="st1" d="M30.8,39.7c0-2.8-2.5-5.1-5.3-4.8c-2.1,0.2-3.9,2-4.2,4.1c-0.2,1.7,0.4,3.2,1.5,4.2c0.7,0.7,1.1,1.6,1.1,2.6
	l0,1.7c0,1,0.7,2,1.7,2.2c1.3,0.2,2.5-0.8,2.5-2.1v-1.8c0-1,0.4-2,1.1-2.6C30.2,42.4,30.8,41.1,30.8,39.7z"/>
<g>
	<path class="st1" d="M47.2,60.6c-1.3-0.6-2.5-1.4-3.5-2.5c-1-1-1.9-2.2-2.5-3.5L27.4,68.6l-0.3,4.3l6.3,1.7l1.8-1.8v-3.1h3.1
		l0.2-0.2v-2.2h2.2l0.9-0.9v-3.4H45L47.2,60.6z"/>
	<path class="st1" d="M61.1,40.8c-4.8-4.8-12.6-4.8-17.4,0c-4.8,4.8-4.8,12.6,0,17.4s12.6,4.8,17.4,0C65.9,53.4,65.9,45.6,61.1,40.8
		z M54,48c-1.3-1.3-1.3-3.5,0-4.8c1.3-1.3,3.5-1.3,4.8,0s1.3,3.5,0,4.8C57.5,49.3,55.3,49.3,54,48z"/>
</g>
</svg>
