<?xml version="1.0" encoding="utf-8"?>
<!-- Generator: Adobe Illustrator 26.3.1, SVG Export Plug-In . SVG Version: 6.00 Build 0)  -->
<svg version="1.1" id="Layer_2" xmlns="http://www.w3.org/2000/svg" xmlns:xlink="http://www.w3.org/1999/xlink" x="0px" y="0px"
	 viewBox="0 0 53.9 69.9" style="enable-background:new 0 0 53.9 69.9;" xml:space="preserve">
<style type="text/css">
	.st0{fill:none;stroke:#FFFFFF;stroke-width:2;stroke-linejoin:round;stroke-miterlimit:10;}
	.st1{fill:none;stroke:#FFFFFF;stroke-width:2;stroke-linecap:round;stroke-linejoin:round;stroke-miterlimit:10;}
</style>
<g>
	<path class="st0" d="M52.1,8.9l-21.9,6.7c-2.1,0.7-4.4,0.7-6.6,0L1.7,8.9l21.9-6.7c2.1-0.7,4.4-0.7,6.6,0L52.1,8.9z"/>
	<path class="st0" d="M52.3,8.9l-9,30.7c-0.5,1.7-1.8,3-3.5,3.5L30,46c-2,0.6-4.2,0.6-6.2,0l-9.7-2.9c-1.7-0.5-3-1.8-3.5-3.5
		l-9-30.7"/>
	<g>
		<path class="st0" d="M34.1,55.6c2.5,0.7,4.1,1.8,4.1,2.9c0,2.1-5,3.8-11.3,3.8s-11.3-1.7-11.3-3.8c0-1.2,1.8-2.3,4.5-3"/>
		<path class="st0" d="M15.7,58.3v6c0,2.1,5,3.8,11.3,3.8s11.3-1.7,11.3-3.8v-5.7"/>
	</g>
	<path class="st0" d="M20.3,45.5v10.6c0,1.2,3,2.2,6.6,2.2s6.6-1,6.6-2.2V45.3"/>
	<path class="st0" d="M22.4,39.9"/>
	<line class="st1" x1="26.5" y1="16.1" x2="26.5" y2="34.5"/>
</g>
</svg>
