<?xml version="1.0" encoding="utf-8"?>
<!-- Generator: Adobe Illustrator 26.3.1, SVG Export Plug-In . SVG Version: 6.00 Build 0)  -->
<svg version="1.1" id="Layer_2" xmlns="http://www.w3.org/2000/svg" xmlns:xlink="http://www.w3.org/1999/xlink" x="0px" y="0px"
	 viewBox="0 0 57.4 36.8" style="enable-background:new 0 0 57.4 36.8;" xml:space="preserve">
<style type="text/css">
	.st0{fill:none;stroke:#FFFFFF;stroke-width:2;stroke-linejoin:round;stroke-miterlimit:10;}
	.st1{fill:none;stroke:#FFFFFF;stroke-width:1.5;stroke-linejoin:round;stroke-miterlimit:10;}
	.st2{fill:none;stroke:#FFFFFF;stroke-width:1.5;stroke-linecap:round;stroke-linejoin:round;stroke-miterlimit:10;}
</style>
<g>
	<path class="st0" d="M50.5,26.7V12.9h4.6L54,6.7c-0.5-2.4-2.6-4.1-5-4.1H8.4c-2.4,0-4.5,1.7-5,4.1l-1.2,6.2h4.6v13.8H2.1v7.7h14.7
		v-3.1h23.9v3.1h14.7v-7.7H50.5z"/>
	<g>
		<path class="st1" d="M19.4,8.7c-2.2,0-4.1,1.8-4.4,4c0.5,0.2,1.2,0.4,1.8,0.4c1.6,0,3-0.9,3.5-2c0.5,0.5,1.3,0.9,2.1,0.9
			c0.4,0,0.8-0.1,1.1-0.2C23,10,21.3,8.7,19.4,8.7z"/>
		<ellipse class="st1" cx="19.4" cy="13.4" rx="4.4" ry="4.7"/>
	</g>
	<g>
		<polyline class="st1" points="17.6,17.6 16.9,19.5 19.3,21.8 		"/>
		<polyline class="st1" points="21.3,17.6 21.9,19.5 19.6,21.8 		"/>
	</g>
	<path class="st1" d="M21.8,19.3c2.6,0.4,4.6,2.2,4.6,5v0c0,0.8-0.6,1.4-1.4,1.4H13.9c-0.8,0-1.4-0.6-1.4-1.4v0c0-2.7,1.8-4.5,4.3-5
		"/>
	<line class="st2" x1="28.8" y1="13.4" x2="46.9" y2="13.4"/>
	<line class="st2" x1="28.8" y1="16.4" x2="39.9" y2="16.4"/>
	<line class="st2" x1="28.8" y1="19.4" x2="34.9" y2="19.4"/>
</g>
</svg>
