<?xml version="1.0" encoding="utf-8"?>
<!-- Generator: Adobe Illustrator 26.3.1, SVG Export Plug-In . SVG Version: 6.00 Build 0)  -->
<svg version="1.1" id="Layer_2" xmlns="http://www.w3.org/2000/svg" xmlns:xlink="http://www.w3.org/1999/xlink" x="0px" y="0px"
	 viewBox="0 0 55.7 43" style="enable-background:new 0 0 55.7 43;" xml:space="preserve">
<style type="text/css">
	.st0{fill:none;stroke:#FFFFFF;stroke-width:2;stroke-linejoin:round;stroke-miterlimit:10;}
	.st1{fill:none;stroke:#FFFFFF;stroke-width:2;stroke-linecap:round;stroke-linejoin:round;stroke-miterlimit:10;}
</style>
<g>
	<path class="st0" d="M44.6,11.2H1.8v-0.7C1.8,6,5.5,2.4,10,2.4h26.5c4.5,0,8.2,3.7,8.2,8.2V11.2z"/>
	<path class="st1" d="M23.1,26.2H1.8v-0.7c0-4.5,3.7-8.2,8.2-8.2h16.5"/>
	<path class="st0" d="M44.6,41.2H1.8v-0.7c0-4.5,3.7-8.2,8.2-8.2h26.5c4.5,0,8.2,3.7,8.2,8.2V41.2z"/>
	<path class="st1" d="M53.4,15.2c-1.1-1.1-2.8-1.1-3.9,0l-1.1,1.1c-1.1,1.1-2.8,1.1-3.9,0l-1.1-1.1c-1.1-1.1-2.8-1.1-3.9,0l-1.1,1.1
		c-1.1,1.1-2.8,1.1-3.9,0l-1.1-1.1c-1.1-1.1-2.8-1.1-3.9,0"/>
	<path class="st1" d="M53.4,21.2c-1.1-1.1-2.8-1.1-3.9,0l-1.1,1.1c-1.1,1.1-2.8,1.1-3.9,0l-1.1-1.1c-1.1-1.1-2.8-1.1-3.9,0l-1.1,1.1
		c-1.1,1.1-2.8,1.1-3.9,0l-1.1-1.1c-1.1-1.1-2.8-1.1-3.9,0"/>
	<path class="st1" d="M53.4,27.2c-1.1-1.1-2.8-1.1-3.9,0l-1.1,1.1c-1.1,1.1-2.8,1.1-3.9,0l-1.1-1.1c-1.1-1.1-2.8-1.1-3.9,0l-1.1,1.1
		c-1.1,1.1-2.8,1.1-3.9,0l-1.1-1.1c-1.1-1.1-2.8-1.1-3.9,0"/>
</g>
</svg>
