<?xml version="1.0" encoding="utf-8"?>
<!-- Generator: Adobe Illustrator 26.2.1, SVG Export Plug-In . SVG Version: 6.00 Build 0)  -->
<svg version="1.1" id="Layer_1" xmlns="http://www.w3.org/2000/svg" xmlns:xlink="http://www.w3.org/1999/xlink" x="0px" y="0px"
	 viewBox="0 0 65.7 53.6" style="enable-background:new 0 0 65.7 53.6;" xml:space="preserve">
<style type="text/css">
	.st0{fill:none;stroke:#FFFFFF;stroke-width:2.5;stroke-miterlimit:10;}
</style>
<path class="st0" d="M6,25.3h41.2c0.3,0,0.7-0.2,0.9-0.4L61.3,8c0.6-0.7,0.1-1.8-0.9-1.8H29.1c-0.2,0-0.5,0.1-0.7,0.2L5.4,23.3
	C4.5,23.9,4.9,25.3,6,25.3z"/>
<path class="st0" d="M17.5,25.3L5.4,34.1c-0.9,0.6-0.4,2,0.7,2h41.2c0.3,0,0.7-0.2,0.9-0.4l13.2-16.8c0.6-0.7,0.1-1.8-0.9-1.8h-6.3"
	/>
<path class="st0" d="M17.5,36.2L5.4,45c-0.9,0.6-0.4,2,0.7,2h41.2c0.3,0,0.7-0.2,0.9-0.4l13.2-16.8c0.6-0.7,0.1-1.8-0.9-1.8h-6.3"/>
</svg>
