<?xml version="1.0" encoding="utf-8"?>
<!-- Generator: Adobe Illustrator 26.2.1, SVG Export Plug-In . SVG Version: 6.00 Build 0)  -->
<svg version="1.1" id="Layer_1" xmlns="http://www.w3.org/2000/svg" xmlns:xlink="http://www.w3.org/1999/xlink" x="0px" y="0px"
	 viewBox="0 0 23.3 23.4" style="enable-background:new 0 0 23.3 23.4;" xml:space="preserve">
<style type="text/css">
	.st0{fill-rule:evenodd;clip-rule:evenodd;fill:#FFFFFF;}
</style>
<path class="st0" d="M11.7,0.7c6.1,0,11,4.9,11,11s-4.9,11-11,11s-11-4.9-11-11S5.6,0.7,11.7,0.7z M8.2,17.9V9.3H5.4v8.6H8.2z
	 M18.5,17.9V13c0-2.6-1.4-3.9-3.3-3.9c-1.5,0-2.2,0.8-2.6,1.4V9.3H9.8c0,0.8,0,8.6,0,8.6h2.9v-4.8c0-0.3,0-0.5,0.1-0.7
	c0.2-0.5,0.7-1,1.5-1c1,0,1.4,0.8,1.4,1.9v4.6L18.5,17.9L18.5,17.9z M6.8,5.2c-1,0-1.6,0.6-1.6,1.5c0,0.8,0.6,1.5,1.6,1.5h0
	c1,0,1.6-0.7,1.6-1.5C8.4,5.8,7.8,5.2,6.8,5.2L6.8,5.2z"/>
</svg>
