<?xml version="1.0" encoding="utf-8"?>
<!-- Generator: Adobe Illustrator 26.4.1, SVG Export Plug-In . SVG Version: 6.00 Build 0)  -->
<svg version="1.1" id="Capa_1" xmlns="http://www.w3.org/2000/svg" xmlns:xlink="http://www.w3.org/1999/xlink" x="0px" y="0px"
	 viewBox="0 0 883 299.4" style="enable-background:new 0 0 883 299.4;" xml:space="preserve">
<style type="text/css">
	.st0{fill:#FFFFFF;}
</style>
<g>
	<path class="st0" d="M329.1,241.6h-20v35.5h-26.4v-117h47.8c28.5,0,39,11.2,39,33.2v15.3C369.5,230.6,357.5,241.6,329.1,241.6z
		 M343.1,195.8c0-8.4-3-12.3-14.1-12.3h-20v35.3h20c11.6,0,14.1-4.4,14.1-12.8V195.8z"/>
	<path class="st0" d="M374.8,277.1v-117h26.4v93.6h46.4v23.4H374.8z"/>
	<path class="st0" d="M539.8,160.1V241c0,17.3-10.8,35-43,35s-43-17.7-43-35v-80.9h25.7v78.5c0,9.3,4.5,14.6,17.3,14.6
		c12.9,0,17.3-5.3,17.3-14.6v-78.5H539.8z"/>
	<path class="st0" d="M589.4,277.1c-13.1,0-26.9-2.9-36.7-7.3L557,250c10.4,3.2,21,5.5,32.7,5.5c13.1,0,15.7-2.6,15.7-12.1
		c0-10.2-0.5-11.4-19.1-15.5c-27.5-6-31.6-11.4-31.6-36c0-22.7,8-31.7,39.2-31.7c9.9,0,21.8,1,34.5,3.8l-2.6,21.5
		c-13-2.2-21.3-3.2-31.6-3.2c-11.4,0-14,2-14,10.4c0,10.9,0.5,11.1,18.4,15.3c30.7,7.3,32.2,13.3,32.2,35.6
		C631,266,623.7,277.1,589.4,277.1z"/>
	<path class="st0" d="M227,205.1v-36h-27v36h-36v27c0,0,17.8,0,36,0v36h27v-36c5.6,0,36,0,36,0v-27H227z"/>
	<polygon class="st0" points="752.5,25.1 847,58.2 658,54.8 	"/>
	<polygon class="st0" points="847,58.2 658,54.8 752.5,96 	"/>
	<path class="st0" d="M752.5,96v180.8L847,239V58.2L752.5,96z M825.9,111l-46.6,18.8c-0.8,0.3-1.5-0.1-1.5-0.9
		c0-0.8,0.7-1.8,1.5-2.1l46.6-18.8c0.8-0.3,1.5,0.1,1.5,0.9C827.5,109.7,826.8,110.6,825.9,111z M825.9,105l-46.6,18.8
		c-0.8,0.3-1.5-0.1-1.5-0.9s0.7-1.8,1.5-2.1l46.6-18.8c0.8-0.3,1.5,0.1,1.5,0.9C827.5,103.7,826.8,104.7,825.9,105z M825.9,99.1
		l-46.6,18.8c-0.8,0.3-1.5-0.1-1.5-0.9s0.7-1.8,1.5-2.1l46.6-18.8c0.8-0.3,1.5,0.1,1.5,0.9C827.5,97.8,826.8,98.8,825.9,99.1z"/>
	<g>
		<path class="st0" d="M101,142.1v-117h26.4v93.6h46.4v23.4H101z"/>
		<path class="st0" d="M268.1,107.3c0,17.2-11.9,34.8-44,34.8s-44-17.6-44-34.8V59.9c0-17.2,11.9-34.8,44-34.8s44,17.6,44,34.8
			V107.3z M242.5,62.1c0-8.9-5.6-14.3-18.4-14.3c-12.8,0-18.4,5.5-18.4,14.3v43c0,8.9,5.6,14.3,18.4,14.3s18.4-5.5,18.4-14.3V62.1z"
			/>
		<path class="st0" d="M299.6,103.2c0,9.9,3.2,15.7,15.9,15.7c8.2,0,19.4-1,29.3-2.7l3.6,22.3c-11.3,2.4-21.5,3.6-32.9,3.6
			c-28.7,0-41.4-14.2-41.4-34.8V59.9c0-20.6,12.8-34.8,41.4-34.8c11.4,0,21.7,1.2,32.9,3.6L344.8,51c-9.9-1.7-21.1-2.7-29.3-2.7
			c-12.6,0-15.9,5.8-15.9,15.7V103.2L299.6,103.2z"/>
		<path class="st0" d="M355,25.1h26.4v117H355V25.1z M384.7,82.4l31.6-57.3H446l-32.9,57.3l35.3,59.7h-29.7L384.7,82.4z"/>
		<path class="st0" d="M452,142.1v-117h73.6v23.4h-47.3v21.4H522v23.4h-43.6v25.5h47.3v23.4H452V142.1z"/>
		<path class="st0" d="M573,105.8h-15.5v36.4h-26.4v-117h48.7c28.5,0,39,11.2,39,33.2v14.4c0,14.6-5.3,24.4-17,29.3l28.3,40.1h-31.3
			L573,105.8z M592.5,60.8c0-8.8-3.3-12.3-14.1-12.3h-20.9v34.4h20.9c11.2,0,14.1-4,14.1-12.8V60.8z"/>
	</g>
</g>
</svg>
