<?xml version="1.0" encoding="utf-8"?>
<!-- Generator: Adobe Illustrator 26.4.1, SVG Export Plug-In . SVG Version: 6.00 Build 0)  -->
<svg version="1.1" id="Capa_1" xmlns="http://www.w3.org/2000/svg" xmlns:xlink="http://www.w3.org/1999/xlink" x="0px" y="0px"
	 viewBox="0 0 860.2 289.3" style="enable-background:new 0 0 860.2 289.3;" xml:space="preserve">
<style type="text/css">
	.st0{fill:#36A9E1;}
	.st1{fill:#00A19A;}
	.st2{fill:#1D71B8;}
	.st3{fill:#FFFFFF;}
</style>
<g>
	<path class="st0" d="M325.3,233.4h-20v35.5h-26.4v-117h47.8c28.5,0,39,11.2,39,33.2v15.3C365.7,222.3,353.7,233.4,325.3,233.4z
		 M339.3,187.5c0-8.4-3-12.3-14.1-12.3h-20v35.3h20c11.6,0,14.1-4.4,14.1-12.8V187.5z"/>
	<path class="st0" d="M371,268.9v-117h26.4v93.6h46.4v23.4H371z"/>
	<path class="st0" d="M536,151.9v80.9c0,17.3-10.8,35-43,35s-43-17.7-43-35v-80.9h25.7v78.5c0,9.3,4.5,14.6,17.3,14.6
		c12.9,0,17.3-5.3,17.3-14.6v-78.5H536z"/>
	<path class="st0" d="M585.6,268.9c-13.1,0-26.9-2.9-36.7-7.3l4.3-19.8c10.4,3.2,21,5.5,32.7,5.5c13.1,0,15.7-2.6,15.7-12.1
		c0-10.2-0.5-11.4-19.1-15.5c-27.5-6-31.6-11.4-31.6-36c0-22.7,8-31.7,39.2-31.7c9.9,0,21.8,1,34.5,3.8l-2.6,21.5
		c-13-2.2-21.3-3.2-31.6-3.2c-11.4,0-14,2-14,10.4c0,10.9,0.5,11.1,18.4,15.3c30.7,7.3,32.2,13.3,32.2,35.6
		C627.2,257.8,619.9,268.9,585.6,268.9z"/>
	<path class="st0" d="M223.2,196.9v-36h-27v36h-36v27c0,0,17.8,0,36,0v36h27v-36c5.6,0,36,0,36,0v-27H223.2z"/>
	<g>
		<g>
			<polygon class="st1" points="748.7,268.6 843.2,230.7 843.2,49.9 748.7,87.8 			"/>
			<polygon class="st0" points="748.7,16.9 843.2,49.9 654.2,46.5 			"/>
			<polygon class="st2" points="843.2,49.9 654.2,46.5 748.7,87.8 			"/>
		</g>
		<g>
			<path class="st3" d="M822.1,90.9l-46.6,18.8c-0.8,0.3-1.5-0.1-1.5-0.9l0,0c0-0.8,0.7-1.8,1.5-2.1l46.6-18.8
				c0.8-0.3,1.5,0.1,1.5,0.9l0,0C823.7,89.6,823,90.5,822.1,90.9z"/>
			<path class="st3" d="M822.1,96.8l-46.6,18.8c-0.8,0.3-1.5-0.1-1.5-0.9l0,0c0-0.8,0.7-1.8,1.5-2.1l46.6-18.8
				c0.8-0.3,1.5,0.1,1.5,0.9l0,0C823.7,95.5,823,96.4,822.1,96.8z"/>
			<path class="st3" d="M822.1,102.7l-46.6,18.8c-0.8,0.3-1.5-0.1-1.5-0.9l0,0c0-0.8,0.7-1.8,1.5-2.1l46.6-18.8
				c0.8-0.3,1.5,0.1,1.5,0.9l0,0C823.7,101.4,823,102.4,822.1,102.7z"/>
		</g>
	</g>
	<g>
		<path class="st2" d="M97.2,133.9v-117h26.4v93.6H170v23.4H97.2z"/>
		<path class="st2" d="M264.2,99.1c0,17.2-11.9,34.8-44,34.8s-44-17.6-44-34.8V51.7c0-17.2,11.9-34.8,44-34.8s44,17.6,44,34.8V99.1z
			 M238.7,53.9c0-8.9-5.6-14.3-18.4-14.3s-18.4,5.5-18.4,14.3v43c0,8.9,5.6,14.3,18.4,14.3s18.4-5.5,18.4-14.3V53.9z"/>
		<path class="st2" d="M295.8,95c0,9.9,3.2,15.7,15.9,15.7c8.2,0,19.4-1,29.3-2.7l3.6,22.3c-11.3,2.4-21.5,3.6-32.9,3.6
			c-28.7,0-41.4-14.2-41.4-34.8V51.7c0-20.6,12.8-34.8,41.4-34.8c11.4,0,21.7,1.2,32.9,3.6L341,42.8c-9.9-1.7-21.1-2.7-29.3-2.7
			c-12.6,0-15.9,5.8-15.9,15.7V95z"/>
		<path class="st2" d="M351.2,16.9h26.4v117h-26.4V16.9z M380.9,74.1l31.6-57.3h29.7l-32.9,57.3l35.3,59.7H415L380.9,74.1z"/>
		<path class="st2" d="M448.2,133.9v-117h73.6v23.4h-47.3v21.4h43.6V85h-43.6v25.5h47.3v23.4H448.2z"/>
		<path class="st2" d="M569.1,97.5h-15.5v36.4h-26.4v-117H576c28.5,0,39,11.2,39,33.2v14.4c0,14.6-5.3,24.4-17,29.3l28.3,40.1H595
			L569.1,97.5z M588.6,52.5c0-8.8-3.3-12.3-14.1-12.3h-20.9v34.4h20.9c11.2,0,14.1-4,14.1-12.8V52.5z"/>
	</g>
</g>
</svg>
