<?xml version="1.0" encoding="utf-8"?>
<!-- Generator: Adobe Illustrator 26.2.1, SVG Export Plug-In . SVG Version: 6.00 Build 0)  -->
<svg version="1.1" id="Layer_1" xmlns="http://www.w3.org/2000/svg" xmlns:xlink="http://www.w3.org/1999/xlink" x="0px" y="0px"
	 viewBox="0 0 25.6 20" style="enable-background:new 0 0 25.6 20;" xml:space="preserve">
<style type="text/css">
	.st0{fill:#FFFFFF;}
	.st1{fill:none;stroke:#FFFFFF;stroke-miterlimit:10;}
</style>
<path class="st0" d="M16.2,8.2H9.5c-1,0-1.9-0.8-1.9-1.9V2.5c0-1,0.8-1.9,1.9-1.9h6.7c1,0,1.9,0.8,1.9,1.9v3.8
	C18.1,7.3,17.2,8.2,16.2,8.2z"/>
<path class="st0" d="M14.9,19.3h-4.1c-0.6,0-1.1-0.5-1.1-1.1v-2.3c0-0.6,0.5-1.1,1.1-1.1h4.1c0.6,0,1.1,0.5,1.1,1.1v2.3
	C16,18.8,15.5,19.3,14.9,19.3z"/>
<path class="st0" d="M23.9,19.3h-4.1c-0.6,0-1.1-0.5-1.1-1.1v-2.3c0-0.6,0.5-1.1,1.1-1.1h4.1c0.6,0,1.1,0.5,1.1,1.1v2.3
	C25,18.8,24.5,19.3,23.9,19.3z"/>
<path class="st0" d="M5.9,19.3H1.8c-0.6,0-1.1-0.5-1.1-1.1v-2.3c0-0.6,0.5-1.1,1.1-1.1h4.1c0.6,0,1.1,0.5,1.1,1.1v2.3
	C7,18.8,6.5,19.3,5.9,19.3z"/>
<line class="st1" x1="12.8" y1="8.2" x2="12.8" y2="15.5"/>
<path class="st1" d="M3.8,17v-3.7c0-1.4,1.2-2.6,2.6-2.6h12.8c1.4,0,2.6,1.2,2.6,2.6V17"/>
</svg>
