<?xml version="1.0" encoding="utf-8"?>
<!-- Generator: Adobe Illustrator 26.2.1, SVG Export Plug-In . SVG Version: 6.00 Build 0)  -->
<svg version="1.1" id="Layer_1" xmlns="http://www.w3.org/2000/svg" xmlns:xlink="http://www.w3.org/1999/xlink" x="0px" y="0px"
	 viewBox="0 0 32.9 37.5" style="enable-background:new 0 0 32.9 37.5;" xml:space="preserve">
<style type="text/css">
	.st0{fill:#FFFFFF;}
	.st1{font-family:'Poppins-Bold';}
	.st2{font-size:10.0842px;}
</style>
<text transform="matrix(1 0 0 1 1.5842 34.8632)" class="st0 st1 st2">MENÚ</text>
<path class="st0" d="M29.7,5.2H2.9C2,5.2,1.2,4.4,1.2,3.5V3.3c0-0.9,0.7-1.7,1.7-1.7h26.8c0.9,0,1.7,0.7,1.7,1.7v0.3
	C31.3,4.4,30.6,5.2,29.7,5.2z"/>
<path class="st0" d="M29.7,12.7H2.9C2,12.7,1.2,12,1.2,11v-0.3c0-0.9,0.7-1.7,1.7-1.7h26.8c0.9,0,1.7,0.7,1.7,1.7V11
	C31.3,12,30.6,12.7,29.7,12.7z"/>
<path class="st0" d="M29.7,20.2H2.9c-0.9,0-1.7-0.7-1.7-1.7v-0.3c0-0.9,0.7-1.7,1.7-1.7h26.8c0.9,0,1.7,0.7,1.7,1.7v0.3
	C31.3,19.5,30.6,20.2,29.7,20.2z"/>
</svg>
