<?xml version="1.0" encoding="utf-8"?>
<!-- Generator: Adobe Illustrator 26.2.1, SVG Export Plug-In . SVG Version: 6.00 Build 0)  -->
<svg version="1.1" xmlns="http://www.w3.org/2000/svg" xmlns:xlink="http://www.w3.org/1999/xlink" x="0px" y="0px"
	 viewBox="0 0 37.2 37.6" style="enable-background:new 0 0 37.2 37.6;" xml:space="preserve">
<style type="text/css">
	.st0{fill:none;stroke:#FFFFFF;stroke-width:0.75;stroke-linecap:round;stroke-miterlimit:10;}
	.st1{fill:none;stroke:#FFFFFF;stroke-width:0.5;stroke-miterlimit:10;}
	.st2{fill:#FFFFFF;}
	.st3{fill:none;stroke:#FFFFFF;stroke-width:0.75;stroke-miterlimit:10;}
</style>
<g id="Layer_1">
</g>
<g id="Layer_2">
	<g>
		<g>
			<line class="st0" x1="7.6" y1="8.7" x2="13.6" y2="8.7"/>
			<line class="st0" x1="7.6" y1="10.1" x2="13.6" y2="10.1"/>
			<line class="st0" x1="7.6" y1="7.2" x2="13.6" y2="7.2"/>
		</g>
		<circle class="st1" cx="8.2" cy="22.7" r="1.2"/>
		<g>
			<path class="st2" d="M15.2,4.5c0.6,0,1.2,0.5,1.2,1.2V32c0,0.6-0.5,1.2-1.2,1.2H6c-0.6,0-1.2-0.5-1.2-1.2V5.6
				C4.9,5,5.4,4.5,6,4.5H15.2 M15.2,3H6C4.6,3,3.4,4.2,3.4,5.6V32c0,1.5,1.2,2.7,2.7,2.7h9.1c1.5,0,2.7-1.2,2.7-2.7V5.6
				C17.8,4.2,16.6,3,15.2,3L15.2,3z"/>
		</g>
		<path class="st3" d="M13,15.2H8.2c-0.7,0-1.2-0.6-1.2-1.2v0c0-0.7,0.6-1.2,1.2-1.2H13c0.7,0,1.2,0.6,1.2,1.2v0
			C14.3,14.6,13.7,15.2,13,15.2z"/>
		<g>
			<line class="st0" x1="23.6" y1="8.7" x2="29.6" y2="8.7"/>
			<line class="st0" x1="23.6" y1="10.1" x2="29.6" y2="10.1"/>
			<line class="st0" x1="23.6" y1="7.2" x2="29.6" y2="7.2"/>
		</g>
		<circle class="st1" cx="24.2" cy="22.7" r="1.2"/>
		<g>
			<path class="st2" d="M31.2,4.5c0.6,0,1.2,0.5,1.2,1.2V32c0,0.6-0.5,1.2-1.2,1.2H22c-0.6,0-1.2-0.5-1.2-1.2V5.6
				c0-0.6,0.5-1.2,1.2-1.2H31.2 M31.2,3H22c-1.5,0-2.7,1.2-2.7,2.7V32c0,1.5,1.2,2.7,2.7,2.7h9.1c1.5,0,2.7-1.2,2.7-2.7V5.6
				C33.8,4.2,32.6,3,31.2,3L31.2,3z"/>
		</g>
		<path class="st3" d="M29,15.2h-4.9c-0.7,0-1.2-0.6-1.2-1.2v0c0-0.7,0.6-1.2,1.2-1.2H29c0.7,0,1.2,0.6,1.2,1.2v0
			C30.3,14.6,29.7,15.2,29,15.2z"/>
	</g>
</g>
</svg>
