<?xml version="1.0" encoding="utf-8"?>
<!-- Generator: Adobe Illustrator 26.2.1, SVG Export Plug-In . SVG Version: 6.00 Build 0)  -->
<svg version="1.1" id="Layer_2" xmlns="http://www.w3.org/2000/svg" xmlns:xlink="http://www.w3.org/1999/xlink" x="0px" y="0px"
	 viewBox="0 0 35.8 37.9" style="enable-background:new 0 0 35.8 37.9;" xml:space="preserve">
<style type="text/css">
	.st0{fill:none;stroke:#FFFFFF;stroke-width:0.75;stroke-linecap:round;stroke-miterlimit:10;}
	.st1{fill:#FFFFFF;}
	.st2{fill:none;stroke:#FFFFFF;stroke-width:0.75;stroke-miterlimit:10;}
</style>
<g>
	<g>
		<line class="st0" x1="6.9" y1="7.3" x2="12.9" y2="7.3"/>
		<line class="st0" x1="6.9" y1="8.7" x2="12.9" y2="8.7"/>
		<line class="st0" x1="6.9" y1="5.9" x2="12.9" y2="5.9"/>
	</g>
	<g>
		<path class="st1" d="M14.5,4.1c0.6,0,1.2,0.5,1.2,1.2v10.3c0,0.6-0.5,1.2-1.2,1.2H5.4c-0.6,0-1.2-0.5-1.2-1.2V5.3
			c0-0.6,0.5-1.2,1.2-1.2H14.5 M14.5,2.6H5.4c-1.5,0-2.7,1.2-2.7,2.7v10.3c0,1.5,1.2,2.7,2.7,2.7h9.1c1.5,0,2.7-1.2,2.7-2.7V5.3
			C17.2,3.8,16,2.6,14.5,2.6L14.5,2.6z"/>
	</g>
	<path class="st2" d="M6.9,14.2v-2.7c0-0.4,0.3-0.7,0.7-0.7h0c0.4,0,0.7,0.3,0.7,0.7v2.7c0,0.4-0.3,0.7-0.7,0.7h0
		C7.3,14.9,6.9,14.6,6.9,14.2z"/>
	<g>
		<line class="st0" x1="6.9" y1="24.3" x2="12.9" y2="24.3"/>
		<line class="st0" x1="6.9" y1="25.7" x2="12.9" y2="25.7"/>
		<line class="st0" x1="6.9" y1="22.9" x2="12.9" y2="22.9"/>
	</g>
	<g>
		<path class="st1" d="M14.5,21.1c0.6,0,1.2,0.5,1.2,1.2v10.3c0,0.6-0.5,1.2-1.2,1.2H5.4c-0.6,0-1.2-0.5-1.2-1.2V22.3
			c0-0.6,0.5-1.2,1.2-1.2H14.5 M14.5,19.6H5.4c-1.5,0-2.7,1.2-2.7,2.7v10.3c0,1.5,1.2,2.7,2.7,2.7h9.1c1.5,0,2.7-1.2,2.7-2.7V22.3
			C17.2,20.8,16,19.6,14.5,19.6L14.5,19.6z"/>
	</g>
	<path class="st2" d="M6.9,31.2v-2.7c0-0.4,0.3-0.7,0.7-0.7h0c0.4,0,0.7,0.3,0.7,0.7v2.7c0,0.4-0.3,0.7-0.7,0.7h0
		C7.3,31.9,6.9,31.6,6.9,31.2z"/>
	<g>
		<line class="st0" x1="22.9" y1="7.3" x2="28.9" y2="7.3"/>
		<line class="st0" x1="22.9" y1="8.7" x2="28.9" y2="8.7"/>
		<line class="st0" x1="22.9" y1="5.9" x2="28.9" y2="5.9"/>
	</g>
	<g>
		<path class="st1" d="M30.5,4.1c0.6,0,1.2,0.5,1.2,1.2v10.3c0,0.6-0.5,1.2-1.2,1.2h-9.1c-0.6,0-1.2-0.5-1.2-1.2V5.3
			c0-0.6,0.5-1.2,1.2-1.2H30.5 M30.5,2.6h-9.1c-1.5,0-2.7,1.2-2.7,2.7v10.3c0,1.5,1.2,2.7,2.7,2.7h9.1c1.5,0,2.7-1.2,2.7-2.7V5.3
			C33.2,3.8,32,2.6,30.5,2.6L30.5,2.6z"/>
	</g>
	<path class="st2" d="M22.9,14.2v-2.7c0-0.4,0.3-0.7,0.7-0.7h0c0.4,0,0.7,0.3,0.7,0.7v2.7c0,0.4-0.3,0.7-0.7,0.7h0
		C23.3,14.9,22.9,14.6,22.9,14.2z"/>
	<g>
		<line class="st0" x1="22.9" y1="24.3" x2="28.9" y2="24.3"/>
		<line class="st0" x1="22.9" y1="25.7" x2="28.9" y2="25.7"/>
		<line class="st0" x1="22.9" y1="22.9" x2="28.9" y2="22.9"/>
	</g>
	<g>
		<path class="st1" d="M30.5,21.1c0.6,0,1.2,0.5,1.2,1.2v10.3c0,0.6-0.5,1.2-1.2,1.2h-9.1c-0.6,0-1.2-0.5-1.2-1.2V22.3
			c0-0.6,0.5-1.2,1.2-1.2H30.5 M30.5,19.6h-9.1c-1.5,0-2.7,1.2-2.7,2.7v10.3c0,1.5,1.2,2.7,2.7,2.7h9.1c1.5,0,2.7-1.2,2.7-2.7V22.3
			C33.2,20.8,32,19.6,30.5,19.6L30.5,19.6z"/>
	</g>
	<path class="st2" d="M22.9,31.2v-2.7c0-0.4,0.3-0.7,0.7-0.7h0c0.4,0,0.7,0.3,0.7,0.7v2.7c0,0.4-0.3,0.7-0.7,0.7h0
		C23.3,31.9,22.9,31.6,22.9,31.2z"/>
</g>
</svg>
