<?xml version="1.0" encoding="utf-8"?>
<!-- Generator: Adobe Illustrator 26.3.1, SVG Export Plug-In . SVG Version: 6.00 Build 0)  -->
<svg version="1.1" id="Layer_1" xmlns="http://www.w3.org/2000/svg" xmlns:xlink="http://www.w3.org/1999/xlink" x="0px" y="0px"
	 viewBox="0 0 32 32" style="enable-background:new 0 0 32 32;" xml:space="preserve">
<g id="Layer_2_00000127744460704592705530000002785783400177143696_">
	<path d="M16,29c-0.3,0-0.5-0.1-0.7-0.3l-7.1-7C3.9,17.5,3.9,10.6,8.2,6.3c0,0,0,0,0.1-0.1C12.5,2,19.5,2,23.8,6.2
		c4.3,4.2,4.3,11.2,0.1,15.4c0,0,0,0-0.1,0.1l-7.1,7C16.5,28.9,16.3,29,16,29z M16,5c-2.4,0-4.7,0.9-6.4,2.6l0,0
		c-3.5,3.5-3.5,9.1,0,12.6c0,0,0,0,0,0l6.4,6.3l6.4-6.3c3.5-3.5,3.5-9.1,0-12.6c0,0,0,0,0,0C20.7,5.9,18.4,5,16,5z M8.9,6.9"/>
	<path d="M16,19c-2.8,0-5-2.2-5-5s2.2-5,5-5s5,2.2,5,5S18.8,19,16,19z M16,11c-1.7,0-3,1.3-3,3s1.3,3,3,3s3-1.3,3-3S17.7,11,16,11z"
		/>
</g>
</svg>
